<svg id="Layer_1" data-name="Layer 1" xmlns="http://www.w3.org/2000/svg" viewBox="0 0 178.61 130.1"><defs><style>.cls-1{fill:#1fc0de;}</style></defs><title>activity</title><g id="Layer_2" data-name="Layer 2"><path class="cls-1" d="M174.7,85.36H125.25L117.67,40a4,4,0,0,0-4-3.4h-.06a4,4,0,0,0-4,3.46L102.2,92.28,93.28,3.64A4,4,0,0,0,89.34,0h-.06A4.11,4.11,0,0,0,85.2,3.52l-11.69,82H3.86a4.06,4.06,0,0,0,0,8.11H77.11a4.11,4.11,0,0,0,4.09-3.5l7.46-52.25,8.77,88.58a4,4,0,0,0,3.94,3.64h.06a4.11,4.11,0,0,0,4.06-3.46L114,67.23l3.82,22.91a4,4,0,0,0,4,3.4h52.91a4.09,4.09,0,0,0,.06-8.17Z"/></g></svg>